<?xml version="1.0" encoding="UTF-8"?>
<!DOCTYPE svg PUBLIC "-//W3C//DTD SVG 1.1//EN" "http://www.w3.org/Graphics/SVG/1.1/DTD/svg11.dtd">
<!-- Creator: CorelDRAW -->
<svg xmlns="http://www.w3.org/2000/svg" xml:space="preserve" width="2048px" height="2048px" style="shape-rendering:geometricPrecision; text-rendering:geometricPrecision; image-rendering:optimizeQuality; fill-rule:evenodd; clip-rule:evenodd"
viewBox="0 0 2048 2048"
 xmlns:xlink="http://www.w3.org/1999/xlink">
 <defs>
  <style type="text/css">
   <![CDATA[
    .fil2 {fill:none}
    .fil1 {fill:#1E88E5}
    .fil0 {fill:#64B5F6}
    .fil3 {fill:#66BB6A}
    .fil4 {fill:#C8E6C9}
   ]]>
  </style>
   <clipPath id="id0">
    <path d="M1024 -0.0011811c565.539,0 1024,458.462 1024,1024 0,565.539 -458.462,1024 -1024,1024 -565.539,0 -1024,-458.462 -1024,-1024 0,-565.539 458.462,-1024 1024,-1024z"/>
   </clipPath>
 </defs>
 <g id="Layer_x0020_1">
  <metadata id="CorelCorpID_0Corel-Layer"/>
  <path class="fil0" d="M1024 -0.0011811c565.539,0 1024,458.462 1024,1024 0,565.539 -458.462,1024 -1024,1024 -565.539,0 -1024,-458.462 -1024,-1024 0,-565.539 458.462,-1024 1024,-1024z"/>
  <g style="clip-path:url(#id0)">
   <g id="_466492496">
    <g>
     <polygon id="_3968039921" class="fil1" points="1261.15,567.891 2397.03,1703.77 2406.16,1714.56 2414.73,1725.75 2422.72,1737.33 2430.12,1749.29 2436.91,1761.6 2443.06,1774.25 2448.56,1787.21 2453.4,1800.48 2457.54,1814.02 2460.97,1827.84 2463.67,1841.89 2465.63,1856.18 2466.81,1870.68 2467.21,1885.37 2466.48,1896.69 2464.34,1910.67 2460.87,1927.15 2456.17,1945.94 2450.3,1966.89 2443.36,1989.81 2435.43,2014.54 2426.59,2040.91 2416.93,2068.74 2406.53,2097.86 2395.48,2128.11 2383.85,2159.32 2371.73,2191.3 2359.21,2223.89 2346.37,2256.92 2333.29,2290.22 2320.05,2323.62 2306.75,2356.94 2293.45,2390.02 2280.26,2422.68 2267.24,2454.75 2254.49,2486.07 2242.08,2516.45 2230.11,2545.74 2218.65,2573.75 2207.79,2600.32 2197.61,2625.28 2188.2,2648.46 2179.64,2669.67 2172.01,2688.77 2165.39,2705.56 2159.88,2719.88 1024,1584 1029.51,1569.68 1036.13,1552.88 1043.76,1533.79 1052.32,1512.57 1061.73,1489.4 1071.91,1464.44 1082.77,1437.87 1094.23,1409.86 1106.2,1380.57 1118.61,1350.19 1131.36,1318.87 1144.38,1286.8 1157.57,1254.13 1170.86,1221.06 1184.17,1187.74 1197.41,1154.34 1210.49,1121.04 1223.33,1088.01 1235.85,1055.42 1247.97,1023.43 1259.6,992.232 1270.65,961.983 1281.05,932.857 1290.71,905.025 1299.55,878.658 1307.48,853.928 1314.42,831.005 1320.28,810.061 1324.99,791.266 1328.46,774.792 1330.6,760.809 1331.33,749.489 1330.93,734.797 1329.75,720.299 1327.79,706.012 1325.09,691.953 1321.66,678.141 1317.51,664.594 1312.68,651.328 1307.18,638.364 1301.03,625.718 1294.24,613.408 1286.84,601.452 1278.84,589.869 1270.28,578.676 "/>
    </g>
    <path id="_466505768" class="fil1" d="M1024 463.999c169.735,0 307.331,127.819 307.331,285.49 0,105.94 -254.69,695.489 -307.331,834.512 -37.467,-97.8284 -307.331,-721.499 -307.331,-834.512 0,-157.671 137.596,-285.49 307.331,-285.49z"/>
   </g>
  </g>
  <path class="fil2" d="M1024 -0.0011811c565.539,0 1024,458.462 1024,1024 0,565.539 -458.462,1024 -1024,1024 -565.539,0 -1024,-458.462 -1024,-1024 0,-565.539 458.462,-1024 1024,-1024z"/>
  <path class="fil3" d="M1218.78 756.173c0,-107.576 -87.2068,-194.783 -194.783,-194.783 -107.576,0 -194.783,87.2068 -194.783,194.783 0,107.577 87.2068,194.784 194.783,194.784 107.576,0 194.783,-87.2068 194.783,-194.784z"/>
  <path class="fil4" d="M1024 464c169.735,0 307.331,127.818 307.331,285.489 0,105.94 -254.69,695.489 -307.331,834.511 -37.467,-97.8272 -307.331,-721.498 -307.331,-834.511 0,-157.671 137.596,-285.489 307.331,-285.489zm0 97.3902c107.576,0 194.783,87.2068 194.783,194.783 0,107.577 -87.2068,194.784 -194.783,194.784 -107.576,0 -194.783,-87.2068 -194.783,-194.784 0,-107.576 87.2068,-194.783 194.783,-194.783z"/>
 </g>
</svg>
